<?xml version="1.0" encoding="UTF-8" standalone="no"?><!DOCTYPE svg PUBLIC "-//W3C//DTD SVG 1.1//EN" "http://www.w3.org/Graphics/SVG/1.1/DTD/svg11.dtd"><svg width="100%" height="100%" viewBox="0 0 155 90" version="1.1" xmlns="http://www.w3.org/2000/svg" xmlns:xlink="http://www.w3.org/1999/xlink" xml:space="preserve" xmlns:serif="http://www.serif.com/" style="fill-rule:evenodd;clip-rule:evenodd;stroke-linecap:round;stroke-linejoin:round;stroke-miterlimit:1.5;"><g><g id="Artboard-4"><rect x="0" y="0" width="154.987" height="89.964"/><g><g id="lines"><path d="M143.999,24l-60.046,60.046" style="fill:none;stroke:#22dbff;stroke-width:2px;"/><g><path d="M131.999,12l-59.999,60" style="fill:none;stroke:#22dbff;stroke-width:2px;"/></g><path d="M-0,84.404l131.999,-0" style="fill:none;stroke:#22dbff;stroke-width:2px;"/><g><path d="M-0.001,71.949l96,-0" style="fill:none;stroke:#22dbff;stroke-width:2px;"/></g><path d="M-0,60l107.999,-0" style="fill:none;stroke:#22dbff;stroke-width:2px;"/><path d="M-0,47.943l119.999,-0" style="fill:none;stroke:#22dbff;stroke-width:2px;"/><path d="M107.999,36l-36,-0" style="fill:none;stroke:#22dbff;stroke-width:2px;"/><path d="M71.999,36l-11.706,11.706" style="fill:none;stroke:#22dbff;stroke-width:2px;"/><g><path d="M154.986,12l-154.986,0" style="fill:none;stroke:#00ab00;stroke-width:2px;"/></g><g><path d="M96,24l-12,-12" style="fill:none;stroke:#00ab00;stroke-width:2px;"/></g><g><path d="M154.986,24l-154.986,0" style="fill:none;stroke:#00ab00;stroke-width:2px;"/></g></g><g id="t110"><g><path d="M106.903,47.943l10.426,-0" style="fill:none;stroke:#f00;stroke-width:2.4px;stroke-linecap:butt;"/></g><g><path d="M111.094,57.16l7.373,-7.373" style="fill:none;stroke:#f00;stroke-width:2.4px;stroke-linecap:butt;"/></g></g><g id="t109"><g><path d="M94.807,59.999l10.426,0" style="fill:none;stroke:#f00;stroke-width:2.4px;stroke-linecap:butt;"/></g><g><path d="M98.999,69.217l7.372,-7.373" style="fill:none;stroke:#f00;stroke-width:2.4px;stroke-linecap:butt;"/></g></g><g id="t108"><g><path d="M86.156,84.606l10.426,0" style="fill:none;stroke:#f00;stroke-width:2.4px;stroke-linecap:butt;"/></g><g><path d="M85.418,82.677l5.283,-5.283" style="fill:none;stroke:#f00;stroke-width:2.4px;stroke-linecap:butt;"/></g></g><g id="t107"><g><path d="M83.999,71.948l9.524,0" style="fill:none;stroke:#f00;stroke-width:2.4px;stroke-linecap:butt;"/></g><g><path d="M90.583,77.681l3.854,-3.855" style="fill:none;stroke:#f00;stroke-width:2.4px;stroke-linecap:butt;"/></g></g><g id="t106"><g><path d="M62.654,47.943l10.426,-0" style="fill:none;stroke:#f00;stroke-width:2.4px;stroke-linecap:butt;"/></g><g><path d="M61.861,46.019l7.372,-7.372" style="fill:none;stroke:#f00;stroke-width:2.4px;stroke-linecap:butt;"/></g></g><g id="t105"><g><path d="M74.603,72l9.35,-0" style="fill:none;stroke:#f00;stroke-width:2.4px;stroke-linecap:butt;"/></g><g><path d="M73.807,70.102l7.372,-7.372" style="fill:none;stroke:#f00;stroke-width:2.4px;stroke-linecap:butt;"/></g></g><g id="t104"><g><path d="M96.791,36l8.757,-0" style="fill:none;stroke:#f00;stroke-width:2.4px;stroke-linecap:butt;"/></g><g><path d="M98.949,45.279l7.373,-7.372" style="fill:none;stroke:#f00;stroke-width:2.4px;stroke-linecap:butt;"/></g></g><g id="t103"><g><path d="M132.81,24l8.756,0" style="fill:none;stroke:#f00;stroke-width:2.4px;stroke-linecap:butt;"/></g><g><path d="M134.968,33.28l7.372,-7.373" style="fill:none;stroke:#f00;stroke-width:2.4px;stroke-linecap:butt;"/></g></g><g id="t102"><g><path d="M120.775,12l8.756,-0" style="fill:none;stroke:#f00;stroke-width:2.4px;stroke-linecap:butt;"/></g><g><path d="M122.933,21.279l7.372,-7.372" style="fill:none;stroke:#f00;stroke-width:2.4px;stroke-linecap:butt;"/></g></g><g id="t101"><g><path d="M86.555,12l8.757,-0" style="fill:none;stroke:#f00;stroke-width:2.4px;stroke-linecap:butt;"/></g><g><path d="M84.766,24l8.756,-0" style="fill:none;stroke:#f00;stroke-width:2.4px;stroke-linecap:butt;"/></g><g><path d="M85.837,13.837l8.324,8.325" style="fill:none;stroke:#f00;stroke-width:2.41px;stroke-linecap:butt;"/></g></g></g></g></g><g id="Layer1"><circle cx="20" cy="12" r="2.5" style="fill:#7cc699;stroke:#00ff36;stroke-width:0.7px;"/><circle cx="150" cy="24" r="2.5" style="fill:#7cc699;stroke:#00ff36;stroke-width:0.7px;"/><circle cx="150" cy="12" r="2.5" style="fill:#7cc699;stroke:#00ff36;stroke-width:0.7px;"/><circle cx="10" cy="47.943" r="2.5" style="fill:#7cc699;stroke:#00ff36;stroke-width:0.7px;"/><circle cx="20" cy="60" r="2.5" style="fill:#7cc699;stroke:#00ff36;stroke-width:0.7px;"/><circle cx="30" cy="71.949" r="2.5" style="fill:#7cc699;stroke:#00ff36;stroke-width:0.7px;"/><circle cx="40" cy="84.404" r="2.5" style="fill:#7cc699;stroke:#00ff36;stroke-width:0.7px;"/><circle cx="120" cy="84.404" r="2.5" style="fill:#7cc699;stroke:#00ff36;stroke-width:0.7px;"/><circle cx="30" cy="24" r="2.5" style="fill:#7cc699;stroke:#00ff36;stroke-width:0.7px;"/></g></svg>